<svg width="82" height="38" viewBox="0 0 82 38" fill="none" xmlns="http://www.w3.org/2000/svg">
<g filter="url(#filter0_d_311_16)">
<path d="M25.3871 4.3516C25.2775 4.23995 25.1472 4.1514 25.0038 4.09106C24.8603 4.03072 24.7065 3.99977 24.5513 4H15.0938C14.6044 4 14.1658 4.306 13.9896 4.7692L8.07872 20.3692C7.99661 20.5859 7.97826 20.8221 8.0259 21.0492C8.07354 21.2763 8.18511 21.4845 8.34707 21.6484L14.258 27.6484C14.3676 27.7601 14.4979 27.8486 14.6413 27.9089C14.7847 27.9693 14.9385 28.0002 15.0938 28H24.5513C25.0407 28 25.4793 27.694 25.6554 27.2308L31.5663 11.6308C31.6484 11.4141 31.6668 11.1779 31.6192 10.9508C31.5715 10.7237 31.4599 10.5155 31.298 10.3516L25.3871 4.3516ZM27.6072 10H21.4941L17.9476 6.4H24.0618L27.6072 10ZM23.7391 25.6H16.3741L21.792 12.4H28.7409L23.7391 25.6Z" fill="#4F46E5"/>
<path d="M28.7527 12.4H21.595L16.2751 25.6H23.9593L28.7527 12.4Z" fill="#2DD4BF"/>
<path d="M17.4573 6.39999H21.3979H24.5504L28.0969 9.99999H21.0038L17.4573 6.39999Z" fill="#2DD4BF"/>
</g>
<path d="M41.2296 15.3H47.9496V17.9H41.2296V15.3ZM41.4696 23H38.2296V9H48.8096V11.6H41.4696V23ZM52.2407 27.04C51.6807 27.04 51.1273 26.9533 50.5807 26.78C50.034 26.6067 49.5873 26.3667 49.2407 26.06L50.3807 23.84C50.6207 24.0533 50.894 24.22 51.2007 24.34C51.5207 24.46 51.834 24.52 52.1407 24.52C52.5807 24.52 52.9273 24.4133 53.1807 24.2C53.4473 24 53.6873 23.66 53.9007 23.18L54.4607 21.86L54.7007 21.52L58.5607 12.24H61.5607L56.7007 23.66C56.354 24.5267 55.954 25.2067 55.5007 25.7C55.0607 26.1933 54.5673 26.54 54.0207 26.74C53.4873 26.94 52.894 27.04 52.2407 27.04ZM54.0807 23.42L49.2807 12.24H52.5007L56.2207 21.24L54.0807 23.42ZM62.8338 23V12.24H65.8138V15.28L65.3938 14.4C65.7138 13.64 66.2271 13.0667 66.9338 12.68C67.6405 12.28 68.5005 12.08 69.5138 12.08V14.96C69.3805 14.9467 69.2605 14.94 69.1538 14.94C69.0471 14.9267 68.9338 14.92 68.8138 14.92C67.9605 14.92 67.2671 15.1667 66.7338 15.66C66.2138 16.14 65.9538 16.8933 65.9538 17.92V23H62.8338ZM77.2658 23V20.9L77.0658 20.44V16.68C77.0658 16.0133 76.8592 15.4933 76.4458 15.12C76.0458 14.7467 75.4258 14.56 74.5858 14.56C74.0125 14.56 73.4458 14.6533 72.8858 14.84C72.3392 15.0133 71.8725 15.2533 71.4858 15.56L70.3658 13.38C70.9525 12.9667 71.6592 12.6467 72.4858 12.42C73.3125 12.1933 74.1525 12.08 75.0058 12.08C76.6458 12.08 77.9192 12.4667 78.8258 13.24C79.7325 14.0133 80.1858 15.22 80.1858 16.86V23H77.2658ZM73.9858 23.16C73.1458 23.16 72.4258 23.02 71.8258 22.74C71.2258 22.4467 70.7658 22.0533 70.4458 21.56C70.1258 21.0667 69.9658 20.5133 69.9658 19.9C69.9658 19.26 70.1192 18.7 70.4258 18.22C70.7458 17.74 71.2458 17.3667 71.9258 17.1C72.6058 16.82 73.4925 16.68 74.5858 16.68H77.4458V18.5H74.9258C74.1925 18.5 73.6858 18.62 73.4058 18.86C73.1392 19.1 73.0058 19.4 73.0058 19.76C73.0058 20.16 73.1592 20.48 73.4658 20.72C73.7858 20.9467 74.2192 21.06 74.7658 21.06C75.2858 21.06 75.7525 20.94 76.1658 20.7C76.5792 20.4467 76.8792 20.08 77.0658 19.6L77.5458 21.04C77.3192 21.7333 76.9058 22.26 76.3058 22.62C75.7058 22.98 74.9325 23.16 73.9858 23.16Z" fill="black"/>
<defs>
<filter id="filter0_d_311_16" x="0" y="0" width="37.645" height="38" filterUnits="userSpaceOnUse" color-interpolation-filters="sRGB">
<feFlood flood-opacity="0" result="BackgroundImageFix"/>
<feColorMatrix in="SourceAlpha" type="matrix" values="0 0 0 0 0 0 0 0 0 0 0 0 0 0 0 0 0 0 127 0" result="hardAlpha"/>
<feOffset dx="-1" dy="3"/>
<feGaussianBlur stdDeviation="3.5"/>
<feComposite in2="hardAlpha" operator="out"/>
<feColorMatrix type="matrix" values="0 0 0 0 0.324686 0 0 0 0 0.291667 0 0 0 0 0.875 0 0 0 0.42 0"/>
<feBlend mode="normal" in2="BackgroundImageFix" result="effect1_dropShadow_311_16"/>
<feBlend mode="normal" in="SourceGraphic" in2="effect1_dropShadow_311_16" result="shape"/>
</filter>
</defs>
</svg>
