<svg width="74" height="74" viewBox="0 0 74 74" fill="none" xmlns="http://www.w3.org/2000/svg">
            <path fill-rule="evenodd" clip-rule="evenodd"
              d="M6.9375 6.9375C6.32419 6.9375 5.73599 7.18114 5.30232 7.61482C4.86864 8.04849 4.625 8.63669 4.625 9.25V31.45C4.625 32.9684 4.92407 34.472 5.50514 35.8748C6.08621 37.2776 6.9379 38.5522 8.01158 39.6259C10.18 41.7943 13.1209 43.0125 16.1875 43.0125H61.4801L46.0003 58.4878C45.566 58.922 45.3221 59.5109 45.3221 60.125C45.3221 60.7391 45.566 61.328 46.0003 61.7622C46.4345 62.1965 47.0234 62.4404 47.6375 62.4404C48.2516 62.4404 48.8405 62.1965 49.2747 61.7622L68.6998 42.3372C68.9151 42.1224 69.086 41.8673 69.2025 41.5863C69.3191 41.3054 69.3791 41.0042 69.3791 40.7C69.3791 40.3958 69.3191 40.0946 69.2025 39.8137C69.086 39.5327 68.9151 39.2776 68.6998 39.0628L50.1997 20.5628C49.7655 20.1285 49.1766 19.8846 48.5625 19.8846C47.9484 19.8846 47.3595 20.1285 46.9253 20.5628C46.491 20.997 46.2471 21.5859 46.2471 22.2C46.2471 22.8141 46.491 23.403 46.9253 23.8372L61.4801 38.3875H16.1875C14.3476 38.3875 12.583 37.6566 11.2819 36.3556C9.98091 35.0545 9.25 33.2899 9.25 31.45V9.25C9.25 8.63669 9.00636 8.04849 8.57268 7.61482C8.13901 7.18114 7.55081 6.9375 6.9375 6.9375Z"
              fill="white" />
          </svg>