<svg xmlns="http://www.w3.org/2000/svg" version="1.1" xmlns:xlink="http://www.w3.org/1999/xlink" xmlns:svgjs="http://svgjs.com/svgjs" width="1440" height="560" preserveAspectRatio="none" viewBox="0 0 1440 560"><g mask="url(&quot;#SvgjsMask1031&quot;)" fill="none"><rect width="1440" height="560" x="0" y="0" fill="url(#SvgjsLinearGradient1032)"></rect><path d="M1362.666,371.006C1405.906,372.012,1438.282,335.889,1459.311,298.093C1479.642,261.551,1486.886,218.778,1468.171,181.382C1447.343,139.764,1409.191,106.133,1362.666,104.976C1314.41,103.776,1268.278,132.25,1247.665,175.899C1229.255,214.883,1251.615,256.631,1273.507,293.771C1294.906,330.077,1320.534,370.026,1362.666,371.006" fill="rgba(255, 255, 255, 0.17)" class="triangle-float1"></path><path d="M885.875,182.528C917.832,180.015,944.454,162.445,962.612,136.028C984.353,104.398,1007.513,65.794,989.357,31.978C970.675,-2.818,925.242,-10.067,885.875,-6.9C852.144,-4.186,826.013,18.132,807.704,46.591C787.236,78.406,766.074,117.208,784.932,150.002C803.82,182.847,848.103,185.499,885.875,182.528" fill="rgba(255, 255, 255, 0.17)" class="triangle-float1"></path><path d="M475.2954314617848 264.49995574579674L408.66535608280367 200.15603988776547 410.95151560375353 331.1300311247779z" fill="rgba(255, 255, 255, 0.17)" class="triangle-float2"></path><path d="M937.308,530.272C986.339,530.698,1040.932,529.366,1068.044,488.51C1097.354,444.342,1090.424,385.832,1063.433,340.211C1036.952,295.452,989.3,266.314,937.308,267.536C887.23,268.713,846.178,302.575,821.047,345.907C795.817,389.41,783.624,443.734,810.449,486.272C836.037,526.849,889.339,529.855,937.308,530.272" fill="rgba(255, 255, 255, 0.17)" class="triangle-float3"></path><path d="M891.846,84.671C918.54,82.806,940.397,64.736,952.666,40.956C963.906,19.17,961.553,-6.102,949.772,-27.601C937.444,-50.097,917.478,-69.017,891.846,-70.027C864.615,-71.1,840.173,-55.423,825.436,-32.5C809.232,-7.295,799.504,24.558,814.279,50.626C829.202,76.955,861.656,86.781,891.846,84.671" fill="rgba(255, 255, 255, 0.17)" class="triangle-float3"></path><path d="M279.979,235.493C337.286,240.56,393.456,205.151,418.485,153.35C441.143,106.455,415.917,55.014,388.61,10.665C363.085,-30.79,328.654,-70.742,279.979,-71.599C230.141,-72.477,186.779,-37.877,164.512,6.719C144.38,47.038,157.958,91.876,178.264,132.108C201.611,178.365,228.365,230.929,279.979,235.493" fill="rgba(255, 255, 255, 0.17)" class="triangle-float2"></path></g><defs><mask id="SvgjsMask1031"><rect width="1440" height="560" fill="#ffffff"></rect></mask><linearGradient x1="15.28%" y1="-39.29%" x2="84.72%" y2="139.29%" gradientUnits="userSpaceOnUse" id="SvgjsLinearGradient1032"><stop stop-color="rgba(0, 69, 162, 1)" offset="0"></stop><stop stop-color="rgba(166, 68, 229, 1)" offset="1"></stop></linearGradient><style>
            @keyframes float1 {
                0%{transform: translate(0, 0)}
                50%{transform: translate(-10px, 0)}
                100%{transform: translate(0, 0)}
            }

            .triangle-float1 {
                animation: float1 5s infinite;
            }

            @keyframes float2 {
                0%{transform: translate(0, 0)}
                50%{transform: translate(-5px, -5px)}
                100%{transform: translate(0, 0)}
            }

            .triangle-float2 {
                animation: float2 4s infinite;
            }

            @keyframes float3 {
                0%{transform: translate(0, 0)}
                50%{transform: translate(0, -10px)}
                100%{transform: translate(0, 0)}
            }

            .triangle-float3 {
                animation: float3 6s infinite;
            }
        </style></defs></svg>