<svg xmlns="http://www.w3.org/2000/svg" version="1.1" xmlns:xlink="http://www.w3.org/1999/xlink" xmlns:svgjs="http://svgjs.com/svgjs" width="1440" height="560" preserveAspectRatio="none" viewBox="0 0 1440 560"><g mask="url(&quot;#SvgjsMask1059&quot;)" fill="none"><rect width="1440" height="560" x="0" y="0" fill="url(#SvgjsLinearGradient1060)"></rect><path d="M316 257L541 482" stroke-width="10" stroke="url(#SvgjsLinearGradient1061)" stroke-linecap="round" class="TopLeft"></path><path d="M693 157L904 368" stroke-width="8" stroke="url(#SvgjsLinearGradient1062)" stroke-linecap="round" class="BottomRight"></path><path d="M320 387L36 103" stroke-width="8" stroke="url(#SvgjsLinearGradient1061)" stroke-linecap="round" class="TopLeft"></path><path d="M825 6L1117 298" stroke-width="10" stroke="url(#SvgjsLinearGradient1061)" stroke-linecap="round" class="TopLeft"></path><path d="M1072 404L1328 660" stroke-width="8" stroke="url(#SvgjsLinearGradient1062)" stroke-linecap="round" class="BottomRight"></path><path d="M839 560L1011 732" stroke-width="8" stroke="url(#SvgjsLinearGradient1062)" stroke-linecap="round" class="BottomRight"></path><path d="M1278 50L1436 208" stroke-width="8" stroke="url(#SvgjsLinearGradient1061)" stroke-linecap="round" class="TopLeft"></path><path d="M522 259L695 432" stroke-width="10" stroke="url(#SvgjsLinearGradient1062)" stroke-linecap="round" class="BottomRight"></path><path d="M596 534L924 862" stroke-width="10" stroke="url(#SvgjsLinearGradient1062)" stroke-linecap="round" class="BottomRight"></path><path d="M786 171L942 327" stroke-width="6" stroke="url(#SvgjsLinearGradient1062)" stroke-linecap="round" class="BottomRight"></path><path d="M329 440L84 195" stroke-width="8" stroke="url(#SvgjsLinearGradient1062)" stroke-linecap="round" class="BottomRight"></path><path d="M283 204L503 424" stroke-width="8" stroke="url(#SvgjsLinearGradient1061)" stroke-linecap="round" class="TopLeft"></path><path d="M769 427L440 98" stroke-width="10" stroke="url(#SvgjsLinearGradient1061)" stroke-linecap="round" class="TopLeft"></path><path d="M205 511L525 831" stroke-width="10" stroke="url(#SvgjsLinearGradient1062)" stroke-linecap="round" class="BottomRight"></path><path d="M288 255L107 74" stroke-width="10" stroke="url(#SvgjsLinearGradient1061)" stroke-linecap="round" class="TopLeft"></path><path d="M338 222L174 58" stroke-width="10" stroke="url(#SvgjsLinearGradient1061)" stroke-linecap="round" class="TopLeft"></path><path d="M203 156L476 429" stroke-width="6" stroke="url(#SvgjsLinearGradient1061)" stroke-linecap="round" class="TopLeft"></path><path d="M746 538L371 163" stroke-width="6" stroke="url(#SvgjsLinearGradient1062)" stroke-linecap="round" class="BottomRight"></path><path d="M1100 27L1427 354" stroke-width="6" stroke="url(#SvgjsLinearGradient1061)" stroke-linecap="round" class="TopLeft"></path><path d="M1392 472L981 61" stroke-width="10" stroke="url(#SvgjsLinearGradient1062)" stroke-linecap="round" class="BottomRight"></path><path d="M46 20L363 337" stroke-width="10" stroke="url(#SvgjsLinearGradient1061)" stroke-linecap="round" class="TopLeft"></path><path d="M324 279L90 45" stroke-width="10" stroke="url(#SvgjsLinearGradient1061)" stroke-linecap="round" class="TopLeft"></path><path d="M1351 116L1110 -125" stroke-width="10" stroke="url(#SvgjsLinearGradient1062)" stroke-linecap="round" class="BottomRight"></path><path d="M366 143L31 -192" stroke-width="10" stroke="url(#SvgjsLinearGradient1062)" stroke-linecap="round" class="BottomRight"></path><path d="M569 234L164 -171" stroke-width="10" stroke="url(#SvgjsLinearGradient1062)" stroke-linecap="round" class="BottomRight"></path><path d="M373 183L209 19" stroke-width="6" stroke="url(#SvgjsLinearGradient1061)" stroke-linecap="round" class="TopLeft"></path><path d="M1263 130L1432 299" stroke-width="6" stroke="url(#SvgjsLinearGradient1062)" stroke-linecap="round" class="BottomRight"></path><path d="M1380 547L1582 749" stroke-width="10" stroke="url(#SvgjsLinearGradient1061)" stroke-linecap="round" class="TopLeft"></path><path d="M417 166L173 -78" stroke-width="10" stroke="url(#SvgjsLinearGradient1062)" stroke-linecap="round" class="BottomRight"></path><path d="M162 238L-199 -123" stroke-width="8" stroke="url(#SvgjsLinearGradient1062)" stroke-linecap="round" class="BottomRight"></path><path d="M692 279L1027 614" stroke-width="8" stroke="url(#SvgjsLinearGradient1062)" stroke-linecap="round" class="BottomRight"></path><path d="M325 523L642 840" stroke-width="6" stroke="url(#SvgjsLinearGradient1062)" stroke-linecap="round" class="BottomRight"></path><path d="M207 494L-55 232" stroke-width="10" stroke="url(#SvgjsLinearGradient1062)" stroke-linecap="round" class="BottomRight"></path><path d="M385 262L220 97" stroke-width="8" stroke="url(#SvgjsLinearGradient1062)" stroke-linecap="round" class="BottomRight"></path><path d="M413 393L154 134" stroke-width="8" stroke="url(#SvgjsLinearGradient1061)" stroke-linecap="round" class="TopLeft"></path><path d="M389 536L249 396" stroke-width="8" stroke="url(#SvgjsLinearGradient1061)" stroke-linecap="round" class="TopLeft"></path><path d="M1376 460L1752 836" stroke-width="6" stroke="url(#SvgjsLinearGradient1061)" stroke-linecap="round" class="TopLeft"></path><path d="M693 140L377 -176" stroke-width="8" stroke="url(#SvgjsLinearGradient1062)" stroke-linecap="round" class="BottomRight"></path><path d="M588 291L177 -120" stroke-width="10" stroke="url(#SvgjsLinearGradient1061)" stroke-linecap="round" class="TopLeft"></path></g><defs><mask id="SvgjsMask1059"><rect width="1440" height="560" fill="#ffffff"></rect></mask><linearGradient x1="15.28%" y1="-39.29%" x2="84.72%" y2="139.29%" gradientUnits="userSpaceOnUse" id="SvgjsLinearGradient1060"><stop stop-color="rgba(67, 76, 149, 1)" offset="0"></stop><stop stop-color="rgba(170, 87, 152, 1)" offset="1"></stop></linearGradient><linearGradient x1="100%" y1="100%" x2="0%" y2="0%" id="SvgjsLinearGradient1061"><stop stop-color="rgba(255, 255, 255, 0)" offset="0"></stop><stop stop-color="rgba(255, 255, 255, 0.12)" offset="1"></stop></linearGradient><linearGradient x1="0%" y1="0%" x2="100%" y2="100%" id="SvgjsLinearGradient1062"><stop stop-color="rgba(255, 255, 255, 0)" offset="0"></stop><stop stop-color="rgba(255, 255, 255, 0.12)" offset="1"></stop></linearGradient></defs></svg>