<svg id="Camada_1" data-name="Camada 1" xmlns="http://www.w3.org/2000/svg" xmlns:xlink="http://www.w3.org/1999/xlink" viewBox="0 0 66.61 12.32"><defs><style>.cls-1{fill:url(#Gradiente_sem_nome_96);}.cls-2,.cls-3,.cls-4,.cls-5,.cls-6,.cls-7,.cls-8,.cls-9{stroke-miterlimit:10;stroke-width:0.25px;}.cls-2{fill:url(#Gradiente_sem_nome_101);stroke:url(#Gradiente_sem_nome_101-2);}.cls-3{fill:url(#Gradiente_sem_nome_101-3);stroke:url(#Gradiente_sem_nome_101-4);}.cls-4{fill:url(#Gradiente_sem_nome_101-5);stroke:url(#Gradiente_sem_nome_101-6);}.cls-5{fill:url(#Gradiente_sem_nome_101-7);stroke:url(#Gradiente_sem_nome_101-8);}.cls-6{fill:url(#Gradiente_sem_nome_101-9);stroke:url(#Gradiente_sem_nome_101-10);}.cls-7{fill:url(#Gradiente_sem_nome_101-11);stroke:url(#Gradiente_sem_nome_101-12);}.cls-8{fill:url(#Gradiente_sem_nome_101-13);stroke:url(#Gradiente_sem_nome_101-14);}.cls-9{fill:url(#Gradiente_sem_nome_101-15);stroke:url(#Gradiente_sem_nome_101-16);}</style><linearGradient id="Gradiente_sem_nome_96" x1="0.72" y1="6.15" x2="18.29" y2="6.15" gradientUnits="userSpaceOnUse"><stop offset="0" stop-color="#434c95"/><stop offset="1" stop-color="#aa5798"/></linearGradient><linearGradient id="Gradiente_sem_nome_101" x1="20.66" y1="7.45" x2="28.22" y2="7.45" gradientUnits="userSpaceOnUse"><stop offset="0" stop-color="#384e97"/><stop offset="1" stop-color="#af5898"/></linearGradient><linearGradient id="Gradiente_sem_nome_101-2" x1="20.53" y1="7.45" x2="28.34" y2="7.45" xlink:href="#Gradiente_sem_nome_101"/><linearGradient id="Gradiente_sem_nome_101-3" x1="28.88" y1="8.87" x2="35.03" y2="8.87" xlink:href="#Gradiente_sem_nome_101"/><linearGradient id="Gradiente_sem_nome_101-4" x1="28.75" y1="8.87" x2="35.16" y2="8.87" xlink:href="#Gradiente_sem_nome_101"/><linearGradient id="Gradiente_sem_nome_101-5" x1="34.39" y1="8.85" x2="40.71" y2="8.85" xlink:href="#Gradiente_sem_nome_101"/><linearGradient id="Gradiente_sem_nome_101-6" x1="34.27" y1="8.85" x2="40.84" y2="8.85" xlink:href="#Gradiente_sem_nome_101"/><linearGradient id="Gradiente_sem_nome_101-7" x1="40.37" y1="7.53" x2="41.96" y2="7.53" xlink:href="#Gradiente_sem_nome_101"/><linearGradient id="Gradiente_sem_nome_101-8" x1="40.25" y1="7.53" x2="42.08" y2="7.53" xlink:href="#Gradiente_sem_nome_101"/><linearGradient id="Gradiente_sem_nome_101-9" x1="42.69" y1="7.45" x2="50.74" y2="7.45" xlink:href="#Gradiente_sem_nome_101"/><linearGradient id="Gradiente_sem_nome_101-10" x1="42.56" y1="7.45" x2="50.86" y2="7.45" xlink:href="#Gradiente_sem_nome_101"/><linearGradient id="Gradiente_sem_nome_101-11" x1="51.2" y1="8.85" x2="57.81" y2="8.85" xlink:href="#Gradiente_sem_nome_101"/><linearGradient id="Gradiente_sem_nome_101-12" x1="51.07" y1="8.85" x2="57.93" y2="8.85" xlink:href="#Gradiente_sem_nome_101"/><linearGradient id="Gradiente_sem_nome_101-13" x1="57.71" y1="8.85" x2="63.11" y2="8.85" xlink:href="#Gradiente_sem_nome_101"/><linearGradient id="Gradiente_sem_nome_101-14" x1="57.59" y1="8.85" x2="63.24" y2="8.85" xlink:href="#Gradiente_sem_nome_101"/><linearGradient id="Gradiente_sem_nome_101-15" x1="62.33" y1="7.81" x2="66.48" y2="7.81" xlink:href="#Gradiente_sem_nome_101"/><linearGradient id="Gradiente_sem_nome_101-16" x1="62.21" y1="7.81" x2="66.61" y2="7.81" xlink:href="#Gradiente_sem_nome_101"/></defs><path class="cls-1" d="M4,12.3A4,4,0,0,1,2.64,4.61V4.39A4.39,4.39,0,0,1,10.83,2.2a2.5,2.5,0,0,1,1.47-.44,2.61,2.61,0,0,1,2.63,2.63,2.71,2.71,0,0,1-.17,1,3.52,3.52,0,0,1-.71,7ZM8.32,9.88a.6.6,0,0,0,.91,0l2.19-2.19a.6.6,0,0,0,0-.91.63.63,0,0,0-.91,0L9.44,7.85V4.17a.66.66,0,0,0-1.32,0V7.85L7,6.78a.63.63,0,0,0-.91,0,.65.65,0,0,0,0,.91Z"/><path class="cls-2" d="M21.27,12.13a.59.59,0,0,1-.44-.18.6.6,0,0,1-.17-.44V3.39a.61.61,0,0,1,.17-.46.63.63,0,0,1,.92.06L27,10V3.39a.62.62,0,0,1,.18-.46.64.64,0,0,1,.44-.17.61.61,0,0,1,.45.17.65.65,0,0,1,.17.46v8.12a.64.64,0,0,1-.17.44.58.58,0,0,1-.45.18.59.59,0,0,1-.25-.05.56.56,0,0,1-.23-.16L21.89,5v6.55a.64.64,0,0,1-.17.44A.61.61,0,0,1,21.27,12.13Z"/><path class="cls-3" d="M31.77,12.19a3,3,0,0,1-1.48-.35,2.6,2.6,0,0,1-1-1,3.45,3.45,0,0,1-.37-1.68V6.17a.58.58,0,0,1,.17-.44.62.62,0,0,1,.44-.17.64.64,0,0,1,.44.17.62.62,0,0,1,.17.44V9.12a2.17,2.17,0,0,0,.25,1.11,1.6,1.6,0,0,0,.69.65,2.16,2.16,0,0,0,1,.21,2.11,2.11,0,0,0,.92-.2,1.83,1.83,0,0,0,.64-.56,1.33,1.33,0,0,0,.24-.78h.75a2.57,2.57,0,0,1-.36,1.35,2.66,2.66,0,0,1-1,.94A2.83,2.83,0,0,1,31.77,12.19Zm2.65-.06A.58.58,0,0,1,34,12a.62.62,0,0,1-.17-.44V6.17A.64.64,0,0,1,34,5.72a.61.61,0,0,1,.44-.16.57.57,0,0,1,.61.61v5.35a.58.58,0,0,1-.17.44A.57.57,0,0,1,34.42,12.13Z"/><path class="cls-4" d="M37.56,12.12a.62.62,0,0,1-.57-.4L34.44,6.36a.47.47,0,0,1,0-.4.57.57,0,0,1,.3-.31.52.52,0,0,1,.42,0,.55.55,0,0,1,.31.27L37.84,11h-.58l2.36-5.13A.56.56,0,0,1,40,5.62a.59.59,0,0,1,.45,0,.51.51,0,0,1,.28.3.53.53,0,0,1,0,.41l-2.54,5.36A.59.59,0,0,1,37.56,12.12Z"/><path class="cls-5" d="M41.16,4.5a.79.79,0,0,1-.55-1.35.79.79,0,1,1,1.11,1.12A.77.77,0,0,1,41.16,4.5Zm0,7.63a.56.56,0,0,1-.43-.17.59.59,0,0,1-.18-.44V6.18a.57.57,0,0,1,.18-.44.6.6,0,0,1,.43-.17.61.61,0,0,1,.45.17.6.6,0,0,1,.17.44v5.34a.62.62,0,0,1-.17.44A.57.57,0,0,1,41.16,12.13Z"/><path class="cls-6" d="M43.31,12.13a.61.61,0,0,1-.62-.62V3.39a.62.62,0,0,1,.18-.46.64.64,0,0,1,.44-.17.61.61,0,0,1,.45.17.62.62,0,0,1,.18.46V6.83H49.5V3.39a.62.62,0,0,1,.18-.46.64.64,0,0,1,.45-.17.6.6,0,0,1,.44.17.65.65,0,0,1,.17.46v8.12a.64.64,0,0,1-.17.44.57.57,0,0,1-.44.18.61.61,0,0,1-.45-.18.6.6,0,0,1-.18-.44V7.93H43.94v3.58a.6.6,0,0,1-.18.44A.58.58,0,0,1,43.31,12.13Z"/><path class="cls-7" d="M54.51,12.18a3.45,3.45,0,0,1-1.72-.42,3.23,3.23,0,0,1-1.17-1.18,3.45,3.45,0,0,1-.42-1.72,3.5,3.5,0,0,1,.42-1.74A3.13,3.13,0,0,1,52.79,6a3.35,3.35,0,0,1,1.72-.43,3.28,3.28,0,0,1,1.7.43,3,3,0,0,1,1.17,1.17,3.4,3.4,0,0,1,.43,1.74,3.45,3.45,0,0,1-.42,1.72,3.08,3.08,0,0,1-1.17,1.18A3.39,3.39,0,0,1,54.51,12.18Zm0-1.08a2,2,0,0,0,1.1-.29,2,2,0,0,0,.75-.79,2.42,2.42,0,0,0,.27-1.16,2.46,2.46,0,0,0-.27-1.17,2,2,0,0,0-.75-.8,2.25,2.25,0,0,0-2.21,0,2,2,0,0,0-.75.8,2.36,2.36,0,0,0-.28,1.17A2.32,2.32,0,0,0,52.65,10a2,2,0,0,0,.75.79A2,2,0,0,0,54.51,11.1Z"/><path class="cls-8" d="M60.53,12.18A4.54,4.54,0,0,1,59,11.92a2.94,2.94,0,0,1-1.11-.65.52.52,0,0,1-.15-.44.59.59,0,0,1,.23-.4.62.62,0,0,1,.48-.16.65.65,0,0,1,.4.21,1.82,1.82,0,0,0,.65.42,2.35,2.35,0,0,0,1,.2,2.07,2.07,0,0,0,1.07-.23.69.69,0,0,0,.37-.58.73.73,0,0,0-.34-.63,3.26,3.26,0,0,0-1.29-.43,3.82,3.82,0,0,1-1.76-.72A1.51,1.51,0,0,1,58,7.33a1.47,1.47,0,0,1,.36-1,2.17,2.17,0,0,1,.92-.6,3.82,3.82,0,0,1,2.58,0,2.36,2.36,0,0,1,1,.7.52.52,0,0,1,.16.4.47.47,0,0,1-.2.35.6.6,0,0,1-.46.09.77.77,0,0,1-.44-.22,1.64,1.64,0,0,0-.65-.39,2.78,2.78,0,0,0-.81-.11,2,2,0,0,0-.89.18.57.57,0,0,0-.37.53.69.69,0,0,0,.12.39.92.92,0,0,0,.45.31,6,6,0,0,0,1,.27,5.4,5.4,0,0,1,1.42.45,1.88,1.88,0,0,1,.75.65,1.47,1.47,0,0,1,.23.84,1.83,1.83,0,0,1-.29,1,2.07,2.07,0,0,1-.87.71A3.46,3.46,0,0,1,60.53,12.18Z"/><path class="cls-9" d="M62.89,6.84a.59.59,0,0,1-.4-.14.46.46,0,0,1-.16-.36A.5.5,0,0,1,62.49,6a.59.59,0,0,1,.4-.14h2.78a.62.62,0,0,1,.41.14.53.53,0,0,1,.15.39.49.49,0,0,1-.15.36.62.62,0,0,1-.41.14Zm2.67,5.29a2,2,0,0,1-1.08-.3,2.28,2.28,0,0,1-.76-.84,2.54,2.54,0,0,1-.27-1.19V4.08a.56.56,0,0,1,.17-.43.58.58,0,0,1,.43-.17.58.58,0,0,1,.6.6V9.8a1.21,1.21,0,0,0,.26.81.8.8,0,0,0,.65.32H66a.48.48,0,0,1,.36.17.63.63,0,0,1,.15.43.56.56,0,0,1-.19.44.81.81,0,0,1-.52.16Z"/></svg>